<svg xmlns="http://www.w3.org/2000/svg" viewBox="0 0 1440 320">
  <path fill="#0099ff" fill-opacity="1" d="M0,64L15,90.7C30,117,60,171,90,213.3C120,256,150,288,180,266.7C210,245,240,171,270,144C300,117,330,139,360,154.7C390,171,420,181,450,165.3C480,149,510,107,540,117.3C570,128,600,192,630,229.3C660,267,690,277,720,256C750,235,780,181,810,170.7C840,160,870,192,900,213.3C930,235,960,245,990,224C1020,203,1050,149,1080,128C1110,107,1140,117,1170,133.3C1200,149,1230,171,1260,154.7C1290,139,1320,85,1350,69.3C1380,53,1410,75,1425,85.3L1440,96L1440,0L1425,0C1410,0,1380,0,1350,0C1320,0,1290,0,1260,0C1230,0,1200,0,1170,0C1140,0,1110,0,1080,0C1050,0,1020,0,990,0C960,0,930,0,900,0C870,0,840,0,810,0C780,0,750,0,720,0C690,0,660,0,630,0C600,0,570,0,540,0C510,0,480,0,450,0C420,0,390,0,360,0C330,0,300,0,270,0C240,0,210,0,180,0C150,0,120,0,90,0C60,0,30,0,15,0L0,0Z"></path>
</svg>